<?xml version="1.0" standalone="no"?>
<!DOCTYPE svg PUBLIC "-//W3C//DTD SVG 20010904//EN"
 "http://www.w3.org/TR/2001/REC-SVG-20010904/DTD/svg10.dtd">
<svg version="1.0" xmlns="http://www.w3.org/2000/svg"
 width="512.000000pt" height="512.000000pt" viewBox="0 0 512.000000 512.000000"
 preserveAspectRatio="xMidYMid meet">

<g transform="translate(0.000000,512.000000) scale(0.100000,-0.100000)"
fill="#000000" stroke="none">
<path d="M1810 4584 c-30 -8 -73 -25 -95 -39 -84 -49 -115 -93 -255 -367
l-135 -263 -360 -5 c-339 -5 -363 -6 -418 -27 -181 -68 -316 -216 -362 -398
-13 -51 -15 -219 -15 -1261 0 -1155 1 -1204 19 -1276 50 -193 171 -326 361
-396 l75 -27 1902 -3 c2086 -3 1976 -6 2107 56 127 61 234 180 287 323 l24 64
3 1229 c3 1354 6 1284 -59 1413 -61 120 -174 220 -309 272 -64 25 -70 26 -425
31 l-360 5 -130 255 c-141 275 -187 341 -274 384 -88 45 -116 46 -839 45 -572
0 -696 -3 -742 -15z m1449 -302 c12 -9 93 -154 179 -322 137 -265 162 -307
192 -325 33 -19 55 -20 440 -25 391 -5 406 -6 445 -27 52 -28 89 -68 114 -123
20 -44 21 -59 21 -1240 l0 -1195 -24 -50 c-12 -27 -41 -67 -64 -87 -81 -73 66
-69 -2022 -66 l-1875 3 -49 25 c-27 14 -64 42 -82 64 -68 79 -65 5 -62 1322
l3 1189 29 53 c31 56 73 93 134 119 32 15 84 16 414 14 354 -2 379 -1 420 17
24 10 50 28 59 38 9 10 82 150 163 309 81 160 156 298 168 308 19 16 67 17
698 17 631 0 679 -1 699 -18z"/>
<path d="M2380 3684 c-232 -42 -391 -104 -565 -219 -179 -119 -336 -299 -438
-501 -48 -96 -93 -227 -118 -347 -29 -133 -31 -360 -5 -490 51 -260 168 -487
348 -673 112 -116 209 -190 333 -255 511 -270 1128 -185 1538 210 271 261 410
587 410 961 0 400 -163 750 -469 1008 -161 135 -333 225 -534 277 -93 24 -126
28 -290 30 -102 2 -196 1 -210 -1z m453 -327 c185 -53 329 -140 462 -278 132
-137 213 -280 261 -464 23 -87 27 -120 27 -250 0 -129 -4 -164 -26 -246 -77
-293 -264 -527 -527 -663 -161 -83 -280 -111 -470 -111 -183 0 -304 28 -455
103 -631 315 -767 1164 -264 1648 126 121 245 195 390 243 133 44 186 51 354
47 135 -3 174 -8 248 -29z"/>
<path d="M2435 3155 c-89 -14 -156 -35 -230 -73 -251 -126 -425 -385 -441
-657 -5 -75 -2 -96 13 -125 38 -72 123 -100 199 -64 54 26 76 65 85 155 9 92
20 131 61 213 66 131 215 234 368 256 41 6 90 13 108 16 40 6 98 62 107 104
22 99 -60 193 -165 189 -14 -1 -61 -7 -105 -14z"/>
</g>
</svg>
