<svg width="15" height="15" viewBox="0 0 15 15" fill="none" xmlns="http://www.w3.org/2000/svg">
<path d="M1.25 3.75L5.57064 6.19811C7.1635 7.10063 7.8365 7.10063 9.42937 6.19811L13.75 3.75" stroke="#002A5C" stroke-width="1.5" stroke-linejoin="round"/>
<path d="M1.25986 8.42225C1.30071 10.3383 1.32114 11.2962 2.0281 12.0059C2.73505 12.7155 3.71896 12.7402 5.68677 12.7896C6.89956 12.8201 8.10044 12.8201 9.31325 12.7896C11.2811 12.7402 12.2649 12.7155 12.9719 12.0059C13.6789 11.2962 13.6993 10.3383 13.7401 8.42225C13.7533 7.80619 13.7533 7.19381 13.7401 6.57775C13.6993 4.66179 13.6789 3.70381 12.9719 2.99416C12.2649 2.28452 11.2811 2.2598 9.31325 2.21036C8.10044 2.17988 6.89956 2.17988 5.68676 2.21035C3.71896 2.25979 2.73505 2.28451 2.02809 2.99416C1.32114 3.7038 1.30071 4.66178 1.25985 6.57775C1.24671 7.19381 1.24672 7.80619 1.25986 8.42225Z" stroke="#002A5C" stroke-width="1.5" stroke-linejoin="round"/>
</svg>
