<?xml version="1.0" standalone="no"?>
<!DOCTYPE svg PUBLIC "-//W3C//DTD SVG 20010904//EN"
 "http://www.w3.org/TR/2001/REC-SVG-20010904/DTD/svg10.dtd">
<svg version="1.0" xmlns="http://www.w3.org/2000/svg"
 width="512.000000pt" height="512.000000pt" viewBox="0 0 512.000000 512.000000"
 preserveAspectRatio="xMidYMid meet">

<g transform="translate(0.000000,512.000000) scale(0.100000,-0.100000)"
fill="#000000" stroke="none">
<path d="M1564 4785 l-25 -25 3 -707 3 -708 27 -50 c50 -94 173 -184 253 -185
60 -1 57 54 52 -821 -5 -954 -6 -972 -115 -1409 -39 -158 -46 -200 -46 -290
-1 -92 2 -111 24 -155 53 -109 160 -175 283 -175 123 0 229 67 284 178 44 91
39 183 -25 447 -106 438 -105 418 -109 1387 -4 790 -3 827 14 831 10 3 36 8
58 12 91 15 179 86 232 187 l28 53 3 703 3 702 -25 25 c-34 34 -88 34 -121 0
l-25 -24 0 -467 c0 -518 0 -517 -65 -548 -41 -20 -68 -20 -105 -1 -60 31 -60
29 -60 535 0 486 -2 507 -45 524 -31 12 -73 6 -96 -13 l-24 -19 -5 -485 -5
-486 -29 -30 c-54 -56 -139 -50 -177 13 -18 29 -19 59 -19 498 l0 466 -26 31
c-33 40 -83 43 -120 6z"/>
<path d="M3505 4789 c-94 -53 -205 -227 -290 -453 -128 -345 -275 -1086 -276
-1394 0 -181 8 -200 149 -341 181 -179 202 -234 202 -532 0 -253 -15 -386
-125 -1134 -51 -350 -46 -496 20 -597 34 -51 91 -78 170 -78 74 0 128 28 167
87 62 91 58 -47 56 2303 l-3 2145 -25 2 c-14 2 -34 -2 -45 -8z"/>
</g>
</svg>
