<?xml version="1.0" standalone="no"?>
<!DOCTYPE svg PUBLIC "-//W3C//DTD SVG 20010904//EN"
 "http://www.w3.org/TR/2001/REC-SVG-20010904/DTD/svg10.dtd">
<svg version="1.0" xmlns="http://www.w3.org/2000/svg"
 width="512.000000pt" height="512.000000pt" viewBox="0 0 512.000000 512.000000"
 preserveAspectRatio="xMidYMid meet">

<g transform="translate(0.000000,512.000000) scale(0.100000,-0.100000)"
fill="#000000" stroke="none">
<path d="M442 4460 c-106 -28 -187 -75 -267 -155 -81 -81 -127 -161 -155 -271
-19 -75 -20 -116 -20 -1474 0 -1358 1 -1399 20 -1474 28 -110 74 -190 155
-271 81 -81 161 -127 271 -155 76 -20 118 -20 2114 -20 1996 0 2038 0 2114 20
110 28 190 74 271 155 81 81 127 161 155 271 19 75 20 116 20 1474 0 1358 -1
1399 -20 1474 -28 109 -74 190 -155 271 -81 82 -160 127 -271 155 -76 20 -117
20 -2118 19 -1977 0 -2043 -1 -2114 -19z m1324 -861 c169 -52 317 -218 355
-397 16 -78 7 -214 -19 -287 -91 -252 -363 -400 -621 -340 -173 41 -323 174
-383 340 -26 73 -35 209 -19 287 17 82 71 185 130 250 142 155 351 210 557
147z m2640 -105 c53 -39 69 -71 69 -134 0 -63 -16 -95 -69 -134 -27 -21 -37
-21 -671 -21 -637 0 -644 0 -672 21 -89 66 -99 179 -21 251 12 12 34 26 48 32
16 6 251 9 657 8 621 -2 632 -2 659 -23z m-3 -853 c51 -31 81 -91 74 -149 -5
-50 -29 -87 -77 -119 l-33 -23 -629 0 c-561 0 -634 2 -664 16 -50 24 -77 68
-82 133 -5 70 22 115 88 149 l45 22 620 -2 620 -3 38 -24z m-2273 -315 c144
-48 253 -127 329 -241 70 -105 92 -180 98 -335 5 -114 4 -130 -15 -167 -12
-23 -38 -51 -59 -64 l-38 -24 -845 0 -845 0 -38 24 c-21 13 -47 41 -58 64 -19
37 -21 53 -16 166 5 155 27 230 98 336 92 137 247 234 414 258 17 3 230 4 475
3 399 -2 451 -4 500 -20z m2270 -538 c48 -33 72 -70 77 -120 7 -58 -23 -118
-74 -149 l-38 -24 -620 -3 -620 -2 -45 22 c-66 34 -93 79 -88 149 5 64 31 108
80 132 29 15 103 17 664 17 l631 0 33 -22z"/>
</g>
</svg>
