<svg width="14" height="14" viewBox="0 0 14 14" fill="none" xmlns="http://www.w3.org/2000/svg">
<path d="M4.56942 10.1111C3.68035 10.2712 3.11108 10.5172 3.11108 10.7931C3.11108 11.2755 4.8522 11.6666 6.99997 11.6666C9.14776 11.6666 10.8889 11.2755 10.8889 10.7931C10.8889 10.5172 10.3196 10.2712 9.43053 10.1111" stroke="white" stroke-linecap="round"/>
<path d="M7.77772 5.83341C7.77772 6.47774 7.4295 7.00008 6.99995 7.00008C6.57039 7.00008 6.22217 6.47774 6.22217 5.83341C6.22217 5.18908 6.57039 4.66675 6.99995 4.66675C7.4295 4.66675 7.77772 5.18908 7.77772 5.83341Z" stroke="white"/>
<path d="M7.55887 9.86486C7.40896 10.0228 7.2086 10.111 7.00011 10.111C6.79158 10.111 6.59122 10.0228 6.44131 9.86486C5.0686 8.41003 3.229 6.78481 4.12612 4.42534C4.61118 3.14959 5.77555 2.33325 7.00011 2.33325C8.22465 2.33325 9.389 3.14959 9.87407 4.42534C10.7701 6.78185 8.93496 8.41504 7.55887 9.86486Z" stroke="white"/>
</svg>
