<svg width="156" height="94" viewBox="0 0 156 94" fill="none" xmlns="http://www.w3.org/2000/svg">
<path d="M96.7498 93.7152C92.4653 93.7152 90.323 91.6919 90.323 87.6454V66.2227C90.323 60.153 91.7512 55.5411 94.6075 52.3872C97.5234 49.2333 101.689 47.6564 107.104 47.6564C114.483 47.6564 119.482 50.3045 122.1 55.6006C124.718 50.3045 129.717 47.6564 137.096 47.6564C142.511 47.6564 146.647 49.2333 149.503 52.3872C152.419 55.5411 153.877 60.153 153.877 66.2227V87.6454C153.877 91.6919 151.735 93.7152 147.45 93.7152C143.166 93.7152 141.023 91.6919 141.023 87.6454V66.9368C141.023 63.9019 140.518 61.7299 139.506 60.4208C138.494 59.0521 136.917 58.3677 134.775 58.3677C130.491 58.3677 128.348 61.2241 128.348 66.9368V87.2884C128.348 91.3349 126.266 93.3582 122.1 93.3582C117.934 93.3582 115.852 91.3349 115.852 87.2884V66.9368C115.852 61.2241 113.709 58.3677 109.425 58.3677C105.259 58.3677 103.177 61.2241 103.177 66.9368V87.6454C103.177 91.6919 101.034 93.7152 96.7498 93.7152Z" fill="white"/>
<path d="M61.114 93.7152C54.7467 93.7152 49.7183 91.9002 46.0288 88.2703C42.3394 84.6403 40.4946 78.7788 40.4946 70.6858C40.4946 62.5333 42.3394 56.6718 46.0288 53.1013C49.7183 49.4714 54.7467 47.6564 61.114 47.6564C67.4813 47.6564 72.5097 49.4714 76.1991 53.1013C79.8886 56.6718 81.7333 62.5333 81.7333 70.6858C81.7333 78.7788 79.8886 84.6403 76.1991 88.2703C72.5097 91.9002 67.4813 93.7152 61.114 93.7152ZM61.114 83.0038C62.7802 83.0038 64.1786 82.6766 65.3093 82.022C66.4399 81.3079 67.3028 80.0582 67.8978 78.273C68.5524 76.4878 68.8797 73.9587 68.8797 70.6858C68.8797 67.4129 68.5524 64.8838 67.8978 63.0986C67.3028 61.3134 66.4399 60.0935 65.3093 59.4389C64.1786 58.7248 62.7802 58.3677 61.114 58.3677C59.5073 58.3677 58.1088 58.7248 56.9187 59.4389C55.7881 60.0935 54.8954 61.3134 54.2409 63.0986C53.6458 64.8838 53.3482 67.4129 53.3482 70.6858C53.3482 73.9587 53.6458 76.4878 54.2409 78.273C54.8954 80.0582 55.7881 81.3079 56.9187 82.022C58.1088 82.6766 59.5073 83.0038 61.114 83.0038Z" fill="white"/>
<path d="M24.6361 93.7156C19.1019 93.7156 14.9959 92.4065 12.3181 89.7881C9.69972 87.1698 8.39056 83.153 8.39056 77.7379V59.1715H6.06976C2.02325 59.1715 0 57.3565 0 53.7266C0 50.1561 2.02325 48.3709 6.06976 48.3709H8.39056V38.7307C8.39056 36.7669 8.98563 35.1602 10.1758 33.9106C11.4254 32.6609 13.0321 32.0361 14.9959 32.0361C16.9001 32.0361 18.4176 32.6312 19.5482 33.8213C20.6789 34.952 21.2442 36.5289 21.2442 38.5522V42.926C21.2442 45.1278 20.8871 46.9427 20.173 48.3709H28.6529C32.6994 48.3709 34.7226 50.1561 34.7226 53.7266C34.7226 57.3565 32.6994 59.1715 28.6529 59.1715H21.2442V78.0056C21.2442 79.7909 21.4525 81.0703 21.869 81.8439C22.2856 82.558 22.9699 82.915 23.922 82.915C25.1717 82.915 26.094 82.8258 26.6891 82.6472C27.3437 82.4092 28.147 82.2902 29.0992 82.2902C30.7059 82.2902 31.9853 82.5877 32.9374 83.1828C33.8895 83.7184 34.3656 84.849 34.3656 86.5747C34.3656 89.0145 33.592 90.8295 32.0448 92.0197C30.4976 93.1503 28.028 93.7156 24.6361 93.7156Z" fill="white"/>
<circle cx="15.6649" cy="20.4763" r="5.57883" fill="white"/>
<circle cx="149.557" cy="20.4763" r="5.57883" fill="white"/>
<path d="M32.402 9.93859C48.7502 4.32537 91.4735 -3.53314 131.581 9.93859" stroke="white" stroke-width="5" stroke-linecap="round"/>
</svg>
