<?xml version="1.0" standalone="no"?>
<!DOCTYPE svg PUBLIC "-//W3C//DTD SVG 20010904//EN"
 "http://www.w3.org/TR/2001/REC-SVG-20010904/DTD/svg10.dtd">
<svg version="1.0" xmlns="http://www.w3.org/2000/svg"
 width="512.000000pt" height="512.000000pt" viewBox="0 0 512.000000 512.000000"
 preserveAspectRatio="xMidYMid meet">

<g transform="translate(0.000000,512.000000) scale(0.100000,-0.100000)"
fill="#000000" stroke="none">
<path d="M3933 4755 c-12 -9 -76 -102 -142 -208 l-121 -193 -217 -53 c-120
-29 -227 -59 -239 -66 -28 -18 -48 -68 -40 -100 4 -14 73 -105 154 -203 l148
-177 -12 -170 c-20 -272 -19 -304 13 -337 42 -44 74 -38 304 56 l206 83 204
-83 c201 -82 251 -95 291 -73 43 23 47 57 30 300 l-15 227 151 181 c134 159
152 185 152 217 0 25 -8 43 -27 63 -24 23 -61 36 -243 81 -118 29 -220 57
-227 62 -6 5 -62 91 -124 190 -62 99 -122 189 -133 199 -24 23 -83 25 -113 4z"/>
<path d="M741 4129 c-267 -52 -469 -240 -541 -502 -20 -73 -20 -95 -18 -1148
l3 -1074 27 -73 c73 -201 223 -352 423 -426 l80 -30 331 -4 331 -3 -1 -212 -1
-212 34 -63 c38 -70 92 -120 167 -154 66 -30 189 -31 254 -1 25 11 231 160
459 332 l414 311 502 0 c467 0 507 1 579 20 107 27 208 83 289 160 104 97 166
199 204 330 17 61 18 118 18 844 l0 780 -155 62 c-152 61 -156 62 -190 47 -19
-8 -98 -40 -175 -71 -136 -55 -143 -57 -235 -57 -83 0 -101 4 -145 27 -60 32
-124 97 -156 158 -21 40 -24 58 -24 170 0 69 3 173 8 231 l7 106 -121 144
c-124 147 -155 197 -167 272 l-8 42 -1074 1 c-591 1 -1095 -2 -1119 -7z m2389
-1140 c47 -27 70 -66 70 -122 0 -54 -31 -105 -80 -129 -32 -17 -94 -18 -848
-18 -888 0 -853 -2 -905 59 -39 47 -44 91 -16 148 45 89 -19 83 917 83 818 0
825 0 862 -21z m-725 -739 c58 -54 70 -116 34 -180 -41 -72 -23 -70 -542 -70
l-464 0 -34 23 c-89 59 -87 182 4 238 31 19 50 19 504 17 l471 -3 27 -25z"/>
</g>
</svg>
