<?xml version="1.0" standalone="no"?>
<!DOCTYPE svg PUBLIC "-//W3C//DTD SVG 20010904//EN"
 "http://www.w3.org/TR/2001/REC-SVG-20010904/DTD/svg10.dtd">
<svg version="1.0" xmlns="http://www.w3.org/2000/svg"
 width="512.000000pt" height="512.000000pt" viewBox="0 0 512.000000 512.000000"
 preserveAspectRatio="xMidYMid meet">

<g transform="translate(0.000000,512.000000) scale(0.100000,-0.100000)"
fill="#000000" stroke="none">
<path d="M1535 4626 c-57 -26 -95 -85 -95 -149 0 -19 120 -295 325 -747 179
-394 325 -722 325 -728 0 -9 -53 -12 -198 -12 -109 0 -327 -3 -483 -6 l-284
-6 -192 235 c-185 227 -195 237 -260 269 -66 32 -71 33 -220 36 -140 4 -157 2
-198 -18 -50 -24 -84 -72 -92 -128 -4 -29 22 -135 102 -424 l107 -386 -106
-381 c-58 -209 -106 -394 -106 -411 0 -71 66 -153 135 -166 65 -12 327 1 366
19 51 23 73 46 283 300 l188 228 297 -7 c163 -4 380 -9 482 -13 l186 -6 -329
-725 c-311 -685 -329 -728 -325 -773 4 -51 26 -88 71 -121 26 -20 41 -21 224
-21 197 0 197 0 244 28 38 22 173 180 690 807 l643 781 115 -7 c63 -4 288 -7
500 -8 331 -1 398 1 477 17 277 53 444 152 517 306 28 59 31 76 31 156 -1 78
-5 98 -29 148 -83 172 -310 284 -646 318 -111 11 -617 7 -865 -7 l-100 -6
-590 718 c-715 871 -696 849 -748 877 -39 20 -57 22 -227 25 -140 1 -192 -1
-215 -12z"/>
</g>
</svg>
