<svg width="8" height="8" viewBox="0 0 8 8" fill="none" xmlns="http://www.w3.org/2000/svg">
<path d="M4.69104 0.577671L5.39496 1.99715C5.49096 2.19475 5.74692 2.38428 5.96292 2.42057L7.23876 2.6343C8.05468 2.77141 8.24667 3.36824 7.65872 3.957L6.66684 4.95708C6.49884 5.12644 6.40688 5.45308 6.45884 5.687L6.74284 6.925C6.9668 7.90492 6.45084 8.284 5.59096 7.77184L4.39508 7.05808C4.17912 6.92904 3.82316 6.92904 3.60316 7.05808L2.40731 7.77184C1.5514 8.284 1.03146 7.90088 1.25543 6.925L1.5394 5.687C1.59139 5.45308 1.49941 5.12644 1.33142 4.95708L0.339536 3.957C-0.2444 3.36824 -0.0564202 2.77141 0.759487 2.6343L2.03535 2.42057C2.24732 2.38428 2.50329 2.19475 2.59928 1.99715L3.3032 0.577671C3.68716 -0.192557 4.31108 -0.192557 4.69104 0.577671Z" fill="#FFE100"/>
</svg>
